# xmcd
#
# Track frame offsets:
#	150
#	46835
#	72039
#	87877
#	133249
#	168165
#
# Disc length: 2815 seconds
#
# Revision: 3
# Processed by: cddbd v1.5.2PL0 Copyright (c) Steve Scherf et al.
# Submitted via: audiograbber 1.83.01
#
DISCID=460afd06
DTITLE=Arvo Pärt - Spiegel im Spiegel [SACD]
DYEAR=2006
DGENRE=Classical
TTITLE0=Spiegel im Spiegel [for violin and piano]
TTITLE1=Variationen zur Gesundung von Arinuschka [for piano solo]
TTITLE2=Für Alina [for piano solo]
TTITLE3=Spiegel im Spiegel [for viola and piano]
TTITLE4=Mozart-Adagio [for violin, cello and piano]
TTITLE5=Spiegel im Spiegel [for cello and piano]
EXTD=
EXTT0=
EXTT1=
EXTT2=
EXTT3=
EXTT4=
EXTT5=
PLAYORDER=
